<?xml version="1.0" encoding="UTF-8" standalone="no"?>
<!-- Generator: Adobe Illustrator 19.0.0, SVG Export Plug-In . SVG Version: 6.00 Build 0)  -->

<svg
   version="1.1"
   id="Layer_1"
   x="0px"
   y="0px"
   viewBox="0 0 512 512"
   style="enable-background:new 0 0 512 512;"
   xml:space="preserve"
   sodipodi:docname="003-game-boy.svg"
   inkscape:version="1.2 (1:1.2.1+202207142221+cd75a1ee6d)"
   xmlns:inkscape="http://www.inkscape.org/namespaces/inkscape"
   xmlns:sodipodi="http://sodipodi.sourceforge.net/DTD/sodipodi-0.dtd"
   xmlns="http://www.w3.org/2000/svg"
   xmlns:svg="http://www.w3.org/2000/svg"
   xmlns:rdf="http://www.w3.org/1999/02/22-rdf-syntax-ns#"
   xmlns:cc="http://creativecommons.org/ns#"
   xmlns:dc="http://purl.org/dc/elements/1.1/"><metadata
   id="metadata127"><rdf:RDF><cc:Work
       rdf:about=""><dc:format>image/svg+xml</dc:format><dc:type
         rdf:resource="http://purl.org/dc/dcmitype/StillImage" /></cc:Work></rdf:RDF></metadata><defs
   id="defs125" /><sodipodi:namedview
   pagecolor="#ffffff"
   bordercolor="#666666"
   borderopacity="1"
   objecttolerance="10"
   gridtolerance="10"
   guidetolerance="10"
   inkscape:pageopacity="0"
   inkscape:pageshadow="2"
   inkscape:window-width="1920"
   inkscape:window-height="1016"
   id="namedview123"
   showgrid="false"
   inkscape:zoom="1.3037281"
   inkscape:cx="309.88056"
   inkscape:cy="252.73674"
   inkscape:window-x="0"
   inkscape:window-y="0"
   inkscape:window-maximized="1"
   inkscape:current-layer="Layer_1"
   inkscape:showpageshadow="0"
   inkscape:pagecheckerboard="1"
   inkscape:deskcolor="#d1d1d1" />
<g
   id="g6"
   style="fill:#70ff70;fill-opacity:1;stroke:#70ff70;stroke-opacity:1">
	<g
   id="g4"
   style="fill:#70ff70;fill-opacity:1;stroke:#70ff70;stroke-opacity:1">
		<path
   d="M413.867,0H98.133c-9.426,0-17.067,7.641-17.067,17.067v477.867c0,9.426,7.641,17.067,17.067,17.067h256    c42.415,0,76.8-34.385,76.8-76.8V17.067C430.933,7.641,423.292,0,413.867,0z M413.867,435.2c0,32.99-26.744,59.733-59.733,59.733    h-256V17.067h315.733V435.2z"
   id="path2"
   style="fill:#70ff70;fill-opacity:1;stroke:#70ff70;stroke-opacity:1" />
	</g>
</g>
<g
   id="g12"
   style="fill:#70ff70;fill-opacity:1;stroke:#70ff70;stroke-opacity:1">
	<g
   id="g10"
   style="fill:#70ff70;fill-opacity:1;stroke:#70ff70;stroke-opacity:1">
		<path
   d="M379.733,34.133H132.267c-9.426,0-17.067,7.641-17.067,17.067v187.733c0,9.426,7.641,17.067,17.067,17.067h230.4    c18.851,0,34.133-15.282,34.133-34.133V51.2C396.8,41.774,389.159,34.133,379.733,34.133z M379.733,221.867    c0,9.426-7.641,17.067-17.067,17.067h-230.4V51.2h247.467V221.867z"
   id="path8"
   style="fill:#70ff70;fill-opacity:1;stroke:#70ff70;stroke-opacity:1" />
	</g>
</g>
<g
   id="g18"
   style="fill:#70ff70;fill-opacity:1;stroke:#70ff70;stroke-opacity:1">
	<g
   id="g16"
   style="fill:#70ff70;fill-opacity:1;stroke:#70ff70;stroke-opacity:1">
		<path
   d="M317.525,412.075c-0.83-0.752-1.783-1.358-2.816-1.792c-3.178-1.336-6.847-0.629-9.301,1.792    c-0.754,0.829-1.36,1.782-1.792,2.816c-0.437,1.026-0.669,2.128-0.683,3.243c-0.013,2.268,0.877,4.448,2.475,6.059    c1.635,1.559,3.799,2.443,6.059,2.475c1.115-0.013,2.217-0.245,3.243-0.683c1.033-0.434,1.986-1.04,2.816-1.792    c0.017-0.016,0.033-0.033,0.049-0.049C320.894,420.796,320.871,415.393,317.525,412.075z"
   id="path14"
   style="fill:#70ff70;fill-opacity:1;stroke:#70ff70;stroke-opacity:1" />
	</g>
</g>
<g
   id="g24"
   style="fill:#70ff70;fill-opacity:1;stroke:#70ff70;stroke-opacity:1">
	<g
   id="g22"
   style="fill:#70ff70;fill-opacity:1;stroke:#70ff70;stroke-opacity:1">
		<path
   d="M317.525,446.208c-0.016-0.017-0.033-0.033-0.049-0.049c-3.346-3.319-8.749-3.297-12.068,0.049    c-1.559,1.635-2.443,3.799-2.475,6.059c0.013,1.115,0.245,2.217,0.683,3.243c0.406,1.047,1.015,2.004,1.792,2.816    c1.635,1.559,3.799,2.443,6.059,2.475c2.293,0.013,4.494-0.896,6.108-2.524C320.894,454.93,320.872,449.527,317.525,446.208z"
   id="path20"
   style="fill:#70ff70;fill-opacity:1;stroke:#70ff70;stroke-opacity:1" />
	</g>
</g>
<g
   id="g30"
   style="fill:#70ff70;fill-opacity:1;stroke:#70ff70;stroke-opacity:1">
	<g
   id="g28"
   style="fill:#70ff70;fill-opacity:1;stroke:#70ff70;stroke-opacity:1">
		<path
   d="M353.451,457.557c-0.393-1.054-1.004-2.013-1.792-2.816c-0.016-0.017-0.033-0.033-0.049-0.049    c-3.346-3.319-8.749-3.297-12.068,0.049c-0.79,0.801-1.401,1.761-1.792,2.816c-0.437,1.026-0.669,2.128-0.683,3.243    c0,4.713,3.82,8.533,8.533,8.533s8.533-3.82,8.533-8.533C354.12,459.685,353.888,458.583,353.451,457.557z"
   id="path26"
   style="fill:#70ff70;fill-opacity:1;stroke:#70ff70;stroke-opacity:1" />
	</g>
</g>
<g
   id="g36"
   style="fill:#70ff70;fill-opacity:1;stroke:#70ff70;stroke-opacity:1">
	<g
   id="g34"
   style="fill:#70ff70;fill-opacity:1;stroke:#70ff70;stroke-opacity:1">
		<path
   d="M353.451,423.424c-0.393-1.054-1.004-2.013-1.792-2.816c-0.016-0.017-0.033-0.033-0.049-0.049    c-3.346-3.319-8.749-3.297-12.068,0.049c-0.79,0.801-1.401,1.761-1.792,2.816c-0.437,1.026-0.669,2.128-0.683,3.243    c-0.013,2.268,0.877,4.448,2.475,6.059c1.635,1.559,3.799,2.443,6.059,2.475c2.259-0.031,4.423-0.915,6.059-2.475    c1.597-1.61,2.488-3.79,2.475-6.059C354.12,425.552,353.888,424.45,353.451,423.424z"
   id="path32"
   style="fill:#70ff70;fill-opacity:1;stroke:#70ff70;stroke-opacity:1" />
	</g>
</g>
<g
   id="g42"
   style="fill:#70ff70;fill-opacity:1;stroke:#70ff70;stroke-opacity:1">
	<g
   id="g40"
   style="fill:#70ff70;fill-opacity:1;stroke:#70ff70;stroke-opacity:1">
		<path
   d="M345.6,384c-4.713,0-8.533,3.821-8.533,8.533c0.013,1.115,0.245,2.217,0.683,3.243c0.393,1.054,1.004,2.013,1.792,2.816    c1.635,1.559,3.799,2.443,6.059,2.475c2.259-0.031,4.423-0.915,6.059-2.475c0.788-0.803,1.399-1.762,1.792-2.816    c0.437-1.026,0.669-2.128,0.683-3.243C354.133,387.821,350.313,384,345.6,384z"
   id="path38"
   style="fill:#70ff70;fill-opacity:1;stroke:#70ff70;stroke-opacity:1" />
	</g>
</g>
<g
   id="g48"
   style="fill:#70ff70;fill-opacity:1;stroke:#70ff70;stroke-opacity:1">
	<g
   id="g46"
   style="fill:#70ff70;fill-opacity:1;stroke:#70ff70;stroke-opacity:1">
		<path
   d="M387.584,380.757c-0.776-2.144-2.464-3.832-4.608-4.608c-3.178-1.336-6.847-0.629-9.301,1.792    c-0.754,0.829-1.36,1.782-1.792,2.816c-0.437,1.026-0.669,2.128-0.683,3.243c0,4.713,3.821,8.533,8.533,8.533    c4.713,0,8.533-3.82,8.533-8.533C388.253,382.885,388.021,381.783,387.584,380.757z"
   id="path44"
   style="fill:#70ff70;fill-opacity:1;stroke:#70ff70;stroke-opacity:1" />
	</g>
</g>
<g
   id="g54"
   style="fill:#70ff70;fill-opacity:1;stroke:#70ff70;stroke-opacity:1">
	<g
   id="g52"
   style="fill:#70ff70;fill-opacity:1;stroke:#70ff70;stroke-opacity:1">
		<path
   d="M379.832,409.6c-4.713-0.027-8.555,3.771-8.583,8.484c-0.027,4.713,3.771,8.555,8.484,8.583    c2.259-0.031,4.423-0.915,6.059-2.475c1.603-1.59,2.511-3.751,2.524-6.009C388.343,413.47,384.545,409.628,379.832,409.6z"
   id="path50"
   style="fill:#70ff70;fill-opacity:1;stroke:#70ff70;stroke-opacity:1" />
	</g>
</g>
<g
   id="g60"
   style="fill:#70ff70;fill-opacity:1;stroke:#70ff70;stroke-opacity:1">
	<g
   id="g58"
   style="fill:#70ff70;fill-opacity:1;stroke:#70ff70;stroke-opacity:1">
		<path
   d="M385.792,446.208c-0.83-0.752-1.783-1.358-2.816-1.792c-3.178-1.336-6.847-0.629-9.301,1.792    c-0.017,0.016-0.033,0.033-0.049,0.049c-3.319,3.346-3.297,8.749,0.049,12.068c1.61,1.597,3.79,2.488,6.059,2.475    c1.115-0.013,2.217-0.245,3.243-0.683c1.033-0.434,1.986-1.04,2.816-1.792c0.017-0.016,0.033-0.033,0.049-0.049    C389.16,454.93,389.138,449.527,385.792,446.208z"
   id="path56"
   style="fill:#70ff70;fill-opacity:1;stroke:#70ff70;stroke-opacity:1" />
	</g>
</g>
<g
   id="g66"
   style="fill:#70ff70;fill-opacity:1;stroke:#70ff70;stroke-opacity:1">
	<g
   id="g64"
   style="fill:#70ff70;fill-opacity:1;stroke:#70ff70;stroke-opacity:1">
		<path
   d="M226.133,315.733h-25.6v-25.6c0-4.713-3.821-8.533-8.533-8.533h-34.133c-4.713,0-8.533,3.82-8.533,8.533v25.6h-25.6    c-4.713,0-8.533,3.82-8.533,8.533V358.4c0,4.713,3.82,8.533,8.533,8.533h25.6v25.6c0,4.713,3.82,8.533,8.533,8.533H192    c4.713,0,8.533-3.821,8.533-8.533v-25.6h25.6c4.713,0,8.533-3.82,8.533-8.533v-34.133    C234.667,319.554,230.846,315.733,226.133,315.733z M217.6,349.867H192c-4.713,0-8.533,3.82-8.533,8.533V384H166.4v-25.6    c0-4.713-3.82-8.533-8.533-8.533h-25.6V332.8h25.6c4.713,0,8.533-3.82,8.533-8.533v-25.6h17.067v25.6    c0,4.713,3.82,8.533,8.533,8.533h25.6V349.867z"
   id="path62"
   style="fill:#70ff70;fill-opacity:1;stroke:#70ff70;stroke-opacity:1" />
	</g>
</g>
<g
   id="g72"
   style="fill:#70ff70;fill-opacity:1;stroke:#70ff70;stroke-opacity:1">
	<g
   id="g70"
   style="fill:#70ff70;fill-opacity:1;stroke:#70ff70;stroke-opacity:1">
		<path
   d="M290.133,307.2c-16.495,0-29.867,13.372-29.867,29.867c0,16.495,13.372,29.867,29.867,29.867S320,353.562,320,337.067    C320,320.572,306.628,307.2,290.133,307.2z M290.133,349.867c-7.069,0-12.8-5.731-12.8-12.8c0-7.069,5.731-12.8,12.8-12.8    s12.8,5.731,12.8,12.8C302.933,344.136,297.203,349.867,290.133,349.867z"
   id="path68"
   style="fill:#70ff70;fill-opacity:1;stroke:#70ff70;stroke-opacity:1" />
	</g>
</g>
<g
   id="g78"
   style="fill:#70ff70;fill-opacity:1;stroke:#70ff70;stroke-opacity:1">
	<g
   id="g76"
   style="fill:#70ff70;fill-opacity:1;stroke:#70ff70;stroke-opacity:1">
		<path
   d="M366.933,273.067c-16.495,0-29.867,13.372-29.867,29.867s13.372,29.867,29.867,29.867    c16.495,0,29.867-13.372,29.867-29.867S383.428,273.067,366.933,273.067z M366.933,315.733c-7.069,0-12.8-5.731-12.8-12.8    s5.731-12.8,12.8-12.8c7.069,0,12.8,5.731,12.8,12.8S374.003,315.733,366.933,315.733z"
   id="path74"
   style="fill:#70ff70;fill-opacity:1;stroke:#70ff70;stroke-opacity:1" />
	</g>
</g>
<g
   id="g84"
   style="fill:#70ff70;fill-opacity:1;stroke:#70ff70;stroke-opacity:1">
	<g
   id="g82"
   style="fill:#70ff70;fill-opacity:1;stroke:#70ff70;stroke-opacity:1">
		<path
   d="M209.067,68.267h-25.6c-4.713,0-8.533,3.82-8.533,8.533s3.82,8.533,8.533,8.533h25.6c4.713,0,8.533-3.82,8.533-8.533    S213.78,68.267,209.067,68.267z"
   id="path80"
   style="fill:#70ff70;fill-opacity:1;stroke:#70ff70;stroke-opacity:1" />
	</g>
</g>
<g
   id="g90"
   style="fill:#00ff00;fill-opacity:1;stroke:#00ff00;stroke-opacity:1">
	<g
   id="g88"
   style="fill:#00ff00;fill-opacity:1;stroke:#00ff00;stroke-opacity:1">
		<path
   d="M165.717,73.557c-0.434-1.033-1.04-1.986-1.792-2.816c-2.454-2.421-6.124-3.128-9.301-1.792    c-2.137,0.786-3.822,2.471-4.608,4.608c-0.437,1.026-0.669,2.128-0.683,3.243c0.031,2.259,0.915,4.423,2.475,6.059    c0.83,0.752,1.783,1.358,2.816,1.792c1.026,0.437,2.128,0.669,3.243,0.683c2.259-0.031,4.423-0.915,6.059-2.475    c0.752-0.83,1.358-1.783,1.792-2.816C166.63,77.977,166.63,75.623,165.717,73.557z"
   id="path86"
   style="fill:#70ff70;fill-opacity:1;stroke:#70ff70;stroke-opacity:1" />
	</g>
</g>
<g
   id="g92"
   style="fill:#00ff00;fill-opacity:1;stroke:#00ff00;stroke-opacity:1">
</g>
<g
   id="g94"
   style="fill:#00ff00;fill-opacity:1;stroke:#00ff00;stroke-opacity:1">
</g>
<g
   id="g96"
   style="fill:#00ff00;fill-opacity:1;stroke:#00ff00;stroke-opacity:1">
</g>
<g
   id="g98"
   style="fill:#00ff00;fill-opacity:1;stroke:#00ff00;stroke-opacity:1">
</g>
<g
   id="g100"
   style="fill:#00ff00;fill-opacity:1;stroke:#00ff00;stroke-opacity:1">
</g>
<g
   id="g102"
   style="fill:#00ff00;fill-opacity:1;stroke:#00ff00;stroke-opacity:1">
</g>
<g
   id="g104"
   style="fill:#00ff00;fill-opacity:1;stroke:#00ff00;stroke-opacity:1">
</g>
<g
   id="g106"
   style="fill:#00ff00;fill-opacity:1;stroke:#00ff00;stroke-opacity:1">
</g>
<g
   id="g108"
   style="fill:#00ff00;fill-opacity:1;stroke:#00ff00;stroke-opacity:1">
</g>
<g
   id="g110"
   style="fill:#00ff00;fill-opacity:1;stroke:#00ff00;stroke-opacity:1">
</g>
<g
   id="g112"
   style="fill:#00ff00;fill-opacity:1;stroke:#00ff00;stroke-opacity:1">
</g>
<g
   id="g114"
   style="fill:#00ff00;fill-opacity:1;stroke:#00ff00;stroke-opacity:1">
</g>
<g
   id="g116"
   style="fill:#00ff00;fill-opacity:1;stroke:#00ff00;stroke-opacity:1">
</g>
<g
   id="g118"
   style="fill:#00ff00;fill-opacity:1;stroke:#00ff00;stroke-opacity:1">
</g>
<g
   id="g120"
   style="fill:#00ff00;fill-opacity:1;stroke:#00ff00;stroke-opacity:1">
</g>
</svg>
