<?xml version="1.0" encoding="UTF-8" standalone="no"?>
<!-- Generator: Adobe Illustrator 19.0.0, SVG Export Plug-In . SVG Version: 6.00 Build 0)  -->

<svg
   xmlns:dc="http://purl.org/dc/elements/1.1/"
   xmlns:cc="http://creativecommons.org/ns#"
   xmlns:rdf="http://www.w3.org/1999/02/22-rdf-syntax-ns#"
   xmlns:svg="http://www.w3.org/2000/svg"
   xmlns="http://www.w3.org/2000/svg"
   xmlns:sodipodi="http://sodipodi.sourceforge.net/DTD/sodipodi-0.dtd"
   xmlns:inkscape="http://www.inkscape.org/namespaces/inkscape"
   version="1.1"
   id="Layer_1"
   x="0px"
   y="0px"
   viewBox="0 0 512 512"
   style="enable-background:new 0 0 512 512;"
   xml:space="preserve"
   sodipodi:docname="011-floppy disc.svg"
   inkscape:version="0.92.5 (2060ec1f9f, 2020-04-08)"><metadata
   id="metadata79"><rdf:RDF><cc:Work
       rdf:about=""><dc:format>image/svg+xml</dc:format><dc:type
         rdf:resource="http://purl.org/dc/dcmitype/StillImage" /></cc:Work></rdf:RDF></metadata><defs
   id="defs77" /><sodipodi:namedview
   pagecolor="#ffffff"
   bordercolor="#666666"
   borderopacity="1"
   objecttolerance="10"
   gridtolerance="10"
   guidetolerance="10"
   inkscape:pageopacity="0"
   inkscape:pageshadow="2"
   inkscape:window-width="1920"
   inkscape:window-height="1009"
   id="namedview75"
   showgrid="false"
   inkscape:zoom="0.4609375"
   inkscape:cx="256"
   inkscape:cy="256"
   inkscape:window-x="0"
   inkscape:window-y="34"
   inkscape:window-maximized="1"
   inkscape:current-layer="Layer_1" />
<g
   id="g6"
   style="fill:#00ff00;fill-opacity:1;stroke:#00ff00;stroke-opacity:1">
	<g
   id="g4"
   style="fill:#00ff00;fill-opacity:1;stroke:#00ff00;stroke-opacity:1">
		<path
   d="M494.933,0H17.067C7.641,0,0,7.641,0,17.067v477.867C0,504.359,7.641,512,17.067,512h477.867    c9.426,0,17.067-7.641,17.067-17.067V17.067C512,7.641,504.359,0,494.933,0z M494.933,494.933H17.067V17.067h477.867V494.933z"
   id="path2"
   style="fill:#00ff00;fill-opacity:1;stroke:#00ff00;stroke-opacity:1" />
	</g>
</g>
<g
   id="g12"
   style="fill:#00ff00;fill-opacity:1;stroke:#00ff00;stroke-opacity:1">
	<g
   id="g10"
   style="fill:#00ff00;fill-opacity:1;stroke:#00ff00;stroke-opacity:1">
		<path
   d="M256,174.933c-44.772,0-81.067,36.295-81.067,81.067c0,44.772,36.295,81.067,81.067,81.067    c44.752-0.047,81.02-36.314,81.067-81.067C337.067,211.228,300.772,174.933,256,174.933z M256,320c-35.346,0-64-28.654-64-64    c0-35.346,28.654-64,64-64c35.327,0.047,63.953,28.673,64,64C320,291.346,291.346,320,256,320z"
   id="path8"
   style="fill:#00ff00;fill-opacity:1;stroke:#00ff00;stroke-opacity:1" />
	</g>
</g>
<g
   id="g18"
   style="fill:#00ff00;fill-opacity:1;stroke:#00ff00;stroke-opacity:1">
	<g
   id="g16"
   style="fill:#00ff00;fill-opacity:1;stroke:#00ff00;stroke-opacity:1">
		<path
   d="M256,209.067c-25.921,0-46.933,21.013-46.933,46.933c0,25.921,21.013,46.933,46.933,46.933    c25.901-0.047,46.886-21.032,46.933-46.933C302.933,230.079,281.921,209.067,256,209.067z M256,285.867    c-16.495,0-29.867-13.372-29.867-29.867c0-16.495,13.372-29.867,29.867-29.867c16.495,0,29.867,13.372,29.867,29.867    C285.867,272.495,272.495,285.867,256,285.867z"
   id="path14"
   style="fill:#00ff00;fill-opacity:1;stroke:#00ff00;stroke-opacity:1" />
	</g>
</g>
<g
   id="g24"
   style="fill:#00ff00;fill-opacity:1;stroke:#00ff00;stroke-opacity:1">
	<g
   id="g22"
   style="fill:#00ff00;fill-opacity:1;stroke:#00ff00;stroke-opacity:1">
		<path
   d="M256,358.4c-14.138,0-25.6,11.462-25.6,25.6v68.267c0,14.138,11.461,25.6,25.6,25.6s25.6-11.462,25.6-25.6V384    C281.6,369.862,270.138,358.4,256,358.4z M264.533,452.267c0,4.713-3.82,8.533-8.533,8.533s-8.533-3.821-8.533-8.533V384    c0-4.713,3.82-8.533,8.533-8.533s8.533,3.82,8.533,8.533V452.267z"
   id="path20"
   style="fill:#00ff00;fill-opacity:1;stroke:#00ff00;stroke-opacity:1" />
	</g>
</g>
<g
   id="g30"
   style="fill:#00ff00;fill-opacity:1;stroke:#00ff00;stroke-opacity:1">
	<g
   id="g28"
   style="fill:#00ff00;fill-opacity:1;stroke:#00ff00;stroke-opacity:1">
		<path
   d="M187.733,34.133H51.2c-9.426,0-17.067,7.641-17.067,17.067V128c0,9.426,7.641,17.067,17.067,17.067h136.533    c9.426,0,17.067-7.641,17.067-17.067V51.2C204.8,41.774,197.159,34.133,187.733,34.133z M187.733,128H51.2V51.2h136.533V128z"
   id="path26"
   style="fill:#00ff00;fill-opacity:1;stroke:#00ff00;stroke-opacity:1" />
	</g>
</g>
<g
   id="g36"
   style="fill:#00ff00;fill-opacity:1;stroke:#00ff00;stroke-opacity:1">
	<g
   id="g34"
   style="fill:#00ff00;fill-opacity:1;stroke:#00ff00;stroke-opacity:1">
		<path
   d="M469.333,34.133c-4.713,0-8.533,3.82-8.533,8.533V51.2c0,4.713,3.82,8.533,8.533,8.533s8.533-3.82,8.533-8.533v-8.533    C477.867,37.954,474.046,34.133,469.333,34.133z"
   id="path32"
   style="fill:#00ff00;fill-opacity:1;stroke:#00ff00;stroke-opacity:1" />
	</g>
</g>
<g
   id="g42"
   style="fill:#00ff00;fill-opacity:1;stroke:#00ff00;stroke-opacity:1">
	<g
   id="g40"
   style="fill:#00ff00;fill-opacity:1;stroke:#00ff00;stroke-opacity:1">
		<path
   d="M475.392,79.275c-3.346-3.346-8.771-3.346-12.117,0c-1.628,1.614-2.537,3.816-2.524,6.108    c0.027,4.713,3.87,8.511,8.583,8.484c2.259-0.031,4.423-0.915,6.059-2.475C478.738,88.046,478.738,82.621,475.392,79.275z"
   id="path38"
   style="fill:#00ff00;fill-opacity:1;stroke:#00ff00;stroke-opacity:1" />
	</g>
</g>
<g
   id="g44"
   style="fill:#00ff00;fill-opacity:1;stroke:#00ff00;stroke-opacity:1">
</g>
<g
   id="g46"
   style="fill:#00ff00;fill-opacity:1;stroke:#00ff00;stroke-opacity:1">
</g>
<g
   id="g48"
   style="fill:#00ff00;fill-opacity:1;stroke:#00ff00;stroke-opacity:1">
</g>
<g
   id="g50"
   style="fill:#00ff00;fill-opacity:1;stroke:#00ff00;stroke-opacity:1">
</g>
<g
   id="g52"
   style="fill:#00ff00;fill-opacity:1;stroke:#00ff00;stroke-opacity:1">
</g>
<g
   id="g54"
   style="fill:#00ff00;fill-opacity:1;stroke:#00ff00;stroke-opacity:1">
</g>
<g
   id="g56"
   style="fill:#00ff00;fill-opacity:1;stroke:#00ff00;stroke-opacity:1">
</g>
<g
   id="g58"
   style="fill:#00ff00;fill-opacity:1;stroke:#00ff00;stroke-opacity:1">
</g>
<g
   id="g60"
   style="fill:#00ff00;fill-opacity:1;stroke:#00ff00;stroke-opacity:1">
</g>
<g
   id="g62"
   style="fill:#00ff00;fill-opacity:1;stroke:#00ff00;stroke-opacity:1">
</g>
<g
   id="g64"
   style="fill:#00ff00;fill-opacity:1;stroke:#00ff00;stroke-opacity:1">
</g>
<g
   id="g66"
   style="fill:#00ff00;fill-opacity:1;stroke:#00ff00;stroke-opacity:1">
</g>
<g
   id="g68"
   style="fill:#00ff00;fill-opacity:1;stroke:#00ff00;stroke-opacity:1">
</g>
<g
   id="g70"
   style="fill:#00ff00;fill-opacity:1;stroke:#00ff00;stroke-opacity:1">
</g>
<g
   id="g72"
   style="fill:#00ff00;fill-opacity:1;stroke:#00ff00;stroke-opacity:1">
</g>
</svg>