<?xml version="1.0" encoding="UTF-8" standalone="no"?>
<!-- Generator: Adobe Illustrator 19.0.0, SVG Export Plug-In . SVG Version: 6.00 Build 0)  -->

<svg
   version="1.1"
   id="Layer_1"
   x="0px"
   y="0px"
   viewBox="0 0 512.503 512.503"
   style="enable-background:new 0 0 512.503 512.503;"
   xml:space="preserve"
   sodipodi:docname="055-commodore.svg"
   inkscape:version="1.2 (1:1.2.1+202207142221+cd75a1ee6d)"
   xmlns:inkscape="http://www.inkscape.org/namespaces/inkscape"
   xmlns:sodipodi="http://sodipodi.sourceforge.net/DTD/sodipodi-0.dtd"
   xmlns="http://www.w3.org/2000/svg"
   xmlns:svg="http://www.w3.org/2000/svg"
   xmlns:rdf="http://www.w3.org/1999/02/22-rdf-syntax-ns#"
   xmlns:cc="http://creativecommons.org/ns#"
   xmlns:dc="http://purl.org/dc/elements/1.1/"><metadata
   id="metadata169"><rdf:RDF><cc:Work
       rdf:about=""><dc:format>image/svg+xml</dc:format><dc:type
         rdf:resource="http://purl.org/dc/dcmitype/StillImage" /><dc:title /></cc:Work></rdf:RDF></metadata><defs
   id="defs167" /><sodipodi:namedview
   pagecolor="#ffffff"
   bordercolor="#666666"
   borderopacity="1"
   objecttolerance="10"
   gridtolerance="10"
   guidetolerance="10"
   inkscape:pageopacity="0"
   inkscape:pageshadow="2"
   inkscape:window-width="1920"
   inkscape:window-height="1016"
   id="namedview165"
   showgrid="false"
   inkscape:pagecheckerboard="true"
   inkscape:zoom="1.8419405"
   inkscape:cx="244.85047"
   inkscape:cy="269.55268"
   inkscape:window-x="0"
   inkscape:window-y="0"
   inkscape:window-maximized="1"
   inkscape:current-layer="Layer_1"
   inkscape:showpageshadow="0"
   inkscape:deskcolor="#d1d1d1" />
<g
   id="g6"
   style="stroke:#70ff70;stroke-opacity:1;fill:#70ff70;fill-opacity:1">
	<g
   id="g4"
   style="stroke:#70ff70;stroke-opacity:1;fill:#70ff70;fill-opacity:1">
		<path
   d="M418.384,192.767L379.216,20.223c-2.682-11.908-13.397-20.266-25.6-19.968H159.226c-12.203-0.298-22.918,8.06-25.6,19.968    L94.117,192.767c-1.043,5.075,0.275,10.349,3.584,14.336c3.257,4.121,8.23,6.514,13.483,6.485h290.133    c5.342,0.108,10.427-2.292,13.739-6.485C418.274,203.073,419.498,197.803,418.384,192.767z M111.184,196.522l39.168-172.459    c0.859-4.003,4.44-6.832,8.533-6.741h194.816c4.068-0.099,7.639,2.687,8.533,6.656l39.083,172.544H111.184z"
   id="path2"
   style="stroke:#70ff70;stroke-opacity:1;fill:#70ff70;fill-opacity:1" />
	</g>
</g>
<g
   id="g12"
   style="stroke:#00ff00;stroke-opacity:1;fill:#00ff00;fill-opacity:1">
	<g
   id="g10"
   style="stroke:#00ff00;stroke-opacity:1;fill:#00ff00;fill-opacity:1">
		<path
   d="M315.984,34.389H196.517c-14.138,0-25.6,11.461-25.6,25.6v93.867c0,14.138,11.461,25.6,25.6,25.6h119.467    c14.138,0,25.6-11.461,25.6-25.6V59.989C341.584,45.85,330.122,34.389,315.984,34.389z M324.517,153.855    c0,4.713-3.82,8.533-8.533,8.533H196.517c-4.713,0-8.533-3.821-8.533-8.533V59.989c0-4.713,3.82-8.533,8.533-8.533h119.467    c4.713,0,8.533,3.82,8.533,8.533V153.855z"
   id="path8"
   style="stroke:#70ff70;stroke-opacity:1;fill:#70ff70;fill-opacity:1" />
	</g>
</g>
<g
   id="g18"
   style="stroke:#70ff70;stroke-opacity:1;fill:#70ff70;fill-opacity:1">
	<g
   id="g16"
   style="stroke:#70ff70;stroke-opacity:1;fill:#70ff70;fill-opacity:1">
		<path
   d="M392.784,196.522H119.717c-4.713,0-8.533,3.82-8.533,8.533v34.133c0,4.713,3.82,8.533,8.533,8.533h273.067    c4.713,0,8.533-3.82,8.533-8.533v-34.133C401.317,200.342,397.496,196.522,392.784,196.522z M384.25,230.655h-256v-17.067h256    V230.655z"
   id="path14"
   style="stroke:#70ff70;stroke-opacity:1;fill:#70ff70;fill-opacity:1" />
	</g>
</g>
<g
   id="g24"
   style="stroke:#70ff70;stroke-opacity:1;fill:#70ff70;fill-opacity:1">
	<g
   id="g22"
   style="stroke:#70ff70;stroke-opacity:1;fill:#70ff70;fill-opacity:1">
		<path
   d="M512.25,450.474l-32.341-132.011c-2.798-11.486-13.096-19.562-24.917-19.541H57.509    c-11.79,0.019-22.042,8.087-24.832,19.541L0.25,450.474c-0.186,0.753-0.269,1.527-0.247,2.302c0.138,4.711,4.069,8.418,8.78,8.279    h494.933c0.775,0.023,1.549-0.06,2.302-0.247C510.594,459.675,513.383,455.048,512.25,450.474z M19.621,443.989l29.355-121.515    c0.963-3.901,4.517-6.602,8.533-6.485h397.227c4.017-0.117,7.571,2.584,8.533,6.485l29.611,121.515H19.621z"
   id="path20"
   style="stroke:#70ff70;stroke-opacity:1;fill:#70ff70;fill-opacity:1" />
	</g>
</g>
<g
   id="g30"
   style="stroke:#70ff70;stroke-opacity:1;fill:#70ff70;fill-opacity:1">
	<g
   id="g28"
   style="stroke:#70ff70;stroke-opacity:1;fill:#70ff70;fill-opacity:1">
		<path
   d="M503.717,443.989H8.784c-1.325,0.004-2.631,0.317-3.814,0.913c-4.209,2.121-5.901,7.252-3.78,11.461l20.907,41.728    c4.328,8.669,13.18,14.152,22.869,14.165h422.571c9.69-0.013,18.541-5.496,22.869-14.165l20.907-41.728    c0.596-1.183,0.909-2.489,0.913-3.814C512.239,447.835,508.43,444.003,503.717,443.989z M475.13,490.495    c-1.446,2.87-4.381,4.684-7.595,4.693H44.88c-3.213-0.01-6.149-1.824-7.595-4.693l-14.677-29.44h467.285L475.13,490.495z"
   id="path26"
   style="stroke:#70ff70;stroke-opacity:1;fill:#70ff70;fill-opacity:1" />
	</g>
</g>
<g
   id="g36"
   style="stroke:#70ff70;stroke-opacity:1;fill:#70ff70;fill-opacity:1">
	<g
   id="g34"
   style="stroke:#70ff70;stroke-opacity:1;fill:#70ff70;fill-opacity:1">
		<path
   d="M401.317,230.655H111.184c-14.138,0-25.6,11.461-25.6,25.6v51.2c0,4.713,3.82,8.533,8.533,8.533h324.267    c4.713,0,8.533-3.82,8.533-8.533v-51.2C426.917,242.117,415.455,230.655,401.317,230.655z M409.85,298.922h-307.2v-42.667    c0-4.713,3.82-8.533,8.533-8.533h290.133c4.713,0,8.533,3.82,8.533,8.533V298.922z"
   id="path32"
   style="stroke:#70ff70;stroke-opacity:1;fill:#70ff70;fill-opacity:1" />
	</g>
</g>
<g
   id="g42"
   style="stroke:#70ff70;stroke-opacity:1;fill:#70ff70;fill-opacity:1">
	<g
   id="g40"
   style="stroke:#70ff70;stroke-opacity:1;fill:#70ff70;fill-opacity:1">
		<path
   d="M153.85,333.055h-76.8c-4.068-0.099-7.639,2.687-8.533,6.656l-17.067,76.8c-0.155,0.685-0.224,1.387-0.207,2.09    c0.116,4.711,4.029,8.437,8.74,8.321h76.8c4.068,0.099,7.639-2.687,8.533-6.656l17.067-76.8c0.155-0.685,0.224-1.387,0.207-2.09    C162.475,336.665,158.562,332.939,153.85,333.055z M130.384,409.855H70.65l13.227-59.733h59.733L130.384,409.855z"
   id="path38"
   style="stroke:#70ff70;stroke-opacity:1;fill:#70ff70;fill-opacity:1" />
	</g>
</g>
<g
   id="g48"
   style="stroke:#70ff70;stroke-opacity:1;fill:#70ff70;fill-opacity:1">
	<g
   id="g46"
   style="stroke:#70ff70;stroke-opacity:1;fill:#70ff70;fill-opacity:1">
		<path
   d="M461.05,416.511l-17.067-76.8c-0.894-3.969-4.466-6.755-8.533-6.656h-76.8c-0.702-0.017-1.404,0.052-2.09,0.207    c-4.597,1.038-7.482,5.607-6.444,10.204l17.067,76.8c0.894,3.969,4.466,6.755,8.533,6.656h76.8    c0.702,0.017,1.404-0.052,2.09-0.207C459.204,425.677,462.089,421.108,461.05,416.511z M382.544,409.855l-13.653-59.733h59.733    l13.653,59.733H382.544z"
   id="path44"
   style="stroke:#70ff70;stroke-opacity:1;fill:#70ff70;fill-opacity:1" />
	</g>
</g>
<g
   id="g54"
   style="stroke:#70ff70;stroke-opacity:1;fill:#70ff70;fill-opacity:1">
	<g
   id="g52"
   style="stroke:#70ff70;stroke-opacity:1;fill:#70ff70;fill-opacity:1">
		<path
   d="M196.517,333.055h-8.533c-4.713,0-8.533,3.821-8.533,8.533s3.82,8.533,8.533,8.533h8.533c4.713,0,8.533-3.82,8.533-8.533    S201.23,333.055,196.517,333.055z"
   id="path50"
   style="stroke:#70ff70;stroke-opacity:1;fill:#70ff70;fill-opacity:1" />
	</g>
</g>
<g
   id="g60"
   style="stroke:#70ff70;stroke-opacity:1;fill:#70ff70;fill-opacity:1">
	<g
   id="g58"
   style="stroke:#70ff70;stroke-opacity:1;fill:#70ff70;fill-opacity:1">
		<path
   d="M239.184,333.055h-8.533c-4.713,0-8.533,3.821-8.533,8.533s3.82,8.533,8.533,8.533h8.533c4.713,0,8.533-3.82,8.533-8.533    S243.896,333.055,239.184,333.055z"
   id="path56"
   style="stroke:#70ff70;stroke-opacity:1;fill:#70ff70;fill-opacity:1" />
	</g>
</g>
<g
   id="g66"
   style="stroke:#70ff70;stroke-opacity:1;fill:#70ff70;fill-opacity:1">
	<g
   id="g64"
   style="stroke:#70ff70;stroke-opacity:1;fill:#70ff70;fill-opacity:1">
		<path
   d="M281.85,333.055h-8.533c-4.713,0-8.533,3.821-8.533,8.533s3.821,8.533,8.533,8.533h8.533c4.713,0,8.533-3.82,8.533-8.533    S286.563,333.055,281.85,333.055z"
   id="path62"
   style="stroke:#70ff70;stroke-opacity:1;fill:#70ff70;fill-opacity:1" />
	</g>
</g>
<g
   id="g72"
   style="stroke:#70ff70;stroke-opacity:1;fill:#70ff70;fill-opacity:1">
	<g
   id="g70"
   style="stroke:#70ff70;stroke-opacity:1;fill:#70ff70;fill-opacity:1">
		<path
   d="M324.517,333.055h-8.533c-4.713,0-8.533,3.821-8.533,8.533s3.82,8.533,8.533,8.533h8.533c4.713,0,8.533-3.82,8.533-8.533    S329.23,333.055,324.517,333.055z"
   id="path68"
   style="stroke:#70ff70;stroke-opacity:1;fill:#70ff70;fill-opacity:1" />
	</g>
</g>
<g
   id="g78"
   style="stroke:#70ff70;stroke-opacity:1;fill:#70ff70;fill-opacity:1">
	<g
   id="g76"
   style="stroke:#70ff70;stroke-opacity:1;fill:#70ff70;fill-opacity:1">
		<path
   d="M196.517,367.189h-8.533c-4.713,0-8.533,3.82-8.533,8.533s3.82,8.533,8.533,8.533h8.533c4.713,0,8.533-3.82,8.533-8.533    S201.23,367.189,196.517,367.189z"
   id="path74"
   style="stroke:#70ff70;stroke-opacity:1;fill:#70ff70;fill-opacity:1" />
	</g>
</g>
<g
   id="g84"
   style="stroke:#70ff70;stroke-opacity:1;fill:#70ff70;fill-opacity:1">
	<g
   id="g82"
   style="stroke:#70ff70;stroke-opacity:1;fill:#70ff70;fill-opacity:1">
		<path
   d="M239.184,367.189h-8.533c-4.713,0-8.533,3.82-8.533,8.533s3.82,8.533,8.533,8.533h8.533c4.713,0,8.533-3.82,8.533-8.533    S243.896,367.189,239.184,367.189z"
   id="path80"
   style="stroke:#70ff70;stroke-opacity:1;fill:#70ff70;fill-opacity:1" />
	</g>
</g>
<g
   id="g90"
   style="stroke:#70ff70;stroke-opacity:1;fill:#70ff70;fill-opacity:1">
	<g
   id="g88"
   style="stroke:#70ff70;stroke-opacity:1;fill:#70ff70;fill-opacity:1">
		<path
   d="M281.85,367.189h-8.533c-4.713,0-8.533,3.82-8.533,8.533s3.821,8.533,8.533,8.533h8.533c4.713,0,8.533-3.82,8.533-8.533    S286.563,367.189,281.85,367.189z"
   id="path86"
   style="stroke:#70ff70;stroke-opacity:1;fill:#70ff70;fill-opacity:1" />
	</g>
</g>
<g
   id="g96"
   style="stroke:#70ff70;stroke-opacity:1;fill:#70ff70;fill-opacity:1">
	<g
   id="g94"
   style="stroke:#70ff70;stroke-opacity:1;fill:#70ff70;fill-opacity:1">
		<path
   d="M324.517,367.189h-8.533c-4.713,0-8.533,3.82-8.533,8.533s3.82,8.533,8.533,8.533h8.533c4.713,0,8.533-3.82,8.533-8.533    S329.23,367.189,324.517,367.189z"
   id="path92"
   style="stroke:#70ff70;stroke-opacity:1;fill:#70ff70;fill-opacity:1" />
	</g>
</g>
<g
   id="g102"
   style="stroke:#70ff70;stroke-opacity:1;fill:#70ff70;fill-opacity:1">
	<g
   id="g100"
   style="stroke:#70ff70;stroke-opacity:1;fill:#70ff70;fill-opacity:1">
		<path
   d="M196.517,401.322h-8.533c-4.713,0-8.533,3.82-8.533,8.533s3.82,8.533,8.533,8.533h8.533c4.713,0,8.533-3.82,8.533-8.533    S201.23,401.322,196.517,401.322z"
   id="path98"
   style="stroke:#70ff70;stroke-opacity:1;fill:#70ff70;fill-opacity:1" />
	</g>
</g>
<g
   id="g108"
   style="stroke:#70ff70;stroke-opacity:1;fill:#70ff70;fill-opacity:1">
	<g
   id="g106"
   style="stroke:#70ff70;stroke-opacity:1;fill:#70ff70;fill-opacity:1">
		<path
   d="M281.85,401.322h-51.2c-4.713,0-8.533,3.82-8.533,8.533s3.82,8.533,8.533,8.533h51.2c4.713,0,8.533-3.82,8.533-8.533    S286.563,401.322,281.85,401.322z"
   id="path104"
   style="stroke:#70ff70;stroke-opacity:1;fill:#70ff70;fill-opacity:1" />
	</g>
</g>
<g
   id="g114"
   style="stroke:#70ff70;stroke-opacity:1;fill:#70ff70;fill-opacity:1">
	<g
   id="g112"
   style="stroke:#70ff70;stroke-opacity:1;fill:#70ff70;fill-opacity:1">
		<path
   d="M324.517,401.322h-8.533c-4.713,0-8.533,3.82-8.533,8.533s3.82,8.533,8.533,8.533h8.533c4.713,0,8.533-3.82,8.533-8.533    S329.23,401.322,324.517,401.322z"
   id="path110"
   style="stroke:#70ff70;stroke-opacity:1;fill:#70ff70;fill-opacity:1" />
	</g>
</g>
<g
   id="g120"
   style="stroke:#70ff70;stroke-opacity:1;fill:#70ff70;fill-opacity:1">
	<g
   id="g118"
   style="stroke:#70ff70;stroke-opacity:1;fill:#70ff70;fill-opacity:1">
		<path
   d="M221.434,73.813c-0.406-1.047-1.015-2.004-1.792-2.816c-1.614-1.628-3.816-2.537-6.108-2.524    c-4.713,0.027-8.511,3.87-8.484,8.583c-0.032,1.12,0.202,2.231,0.683,3.243c0.434,1.033,1.04,1.986,1.792,2.816    c0.829,0.754,1.782,1.36,2.816,1.792c1.026,0.437,2.128,0.669,3.243,0.683c1.115-0.013,2.217-0.245,3.243-0.683    c2.144-0.776,3.832-2.464,4.608-4.608C222.347,78.232,222.347,75.878,221.434,73.813z"
   id="path116"
   style="stroke:#70ff70;stroke-opacity:1;fill:#70ff70;fill-opacity:1" />
	</g>
</g>
<g
   id="g126"
   style="stroke:#70ff70;stroke-opacity:1;fill:#70ff70;fill-opacity:1">
	<g
   id="g124"
   style="stroke:#70ff70;stroke-opacity:1;fill:#70ff70;fill-opacity:1">
		<path
   d="M290.384,68.522h-51.2c-4.713,0-8.533,3.82-8.533,8.533s3.82,8.533,8.533,8.533h51.2c4.713,0,8.533-3.82,8.533-8.533    S295.096,68.522,290.384,68.522z"
   id="path122"
   style="stroke:#70ff70;stroke-opacity:1;fill:#70ff70;fill-opacity:1" />
	</g>
</g>
<g
   id="g132"
   style="stroke:#70ff70;stroke-opacity:1;fill:#70ff70;fill-opacity:1">
	<g
   id="g130"
   style="stroke:#70ff70;stroke-opacity:1;fill:#70ff70;fill-opacity:1">
		<path
   d="M384.25,264.789h-76.8c-4.713,0-8.533,3.821-8.533,8.533c0,4.713,3.82,8.533,8.533,8.533h76.8    c4.713,0,8.533-3.821,8.533-8.533C392.784,268.609,388.963,264.789,384.25,264.789z"
   id="path128"
   style="stroke:#70ff70;stroke-opacity:1;fill:#70ff70;fill-opacity:1" />
	</g>
</g>
<g
   id="g134">
</g>
<g
   id="g136">
</g>
<g
   id="g138">
</g>
<g
   id="g140">
</g>
<g
   id="g142">
</g>
<g
   id="g144">
</g>
<g
   id="g146">
</g>
<g
   id="g148">
</g>
<g
   id="g150">
</g>
<g
   id="g152">
</g>
<g
   id="g154">
</g>
<g
   id="g156">
</g>
<g
   id="g158">
</g>
<g
   id="g160">
</g>
<g
   id="g162">
</g>
</svg>
