<?xml version="1.0" encoding="UTF-8" standalone="no"?>
<!-- Generator: Adobe Illustrator 19.0.0, SVG Export Plug-In . SVG Version: 6.00 Build 0)  -->

<svg
   xmlns:dc="http://purl.org/dc/elements/1.1/"
   xmlns:cc="http://creativecommons.org/ns#"
   xmlns:rdf="http://www.w3.org/1999/02/22-rdf-syntax-ns#"
   xmlns:svg="http://www.w3.org/2000/svg"
   xmlns="http://www.w3.org/2000/svg"
   xmlns:sodipodi="http://sodipodi.sourceforge.net/DTD/sodipodi-0.dtd"
   xmlns:inkscape="http://www.inkscape.org/namespaces/inkscape"
   version="1.1"
   id="Capa_1"
   x="0px"
   y="0px"
   viewBox="0 0 512.99679 460.37002"
   xml:space="preserve"
   sodipodi:docname="alert.svg"
   inkscape:version="0.92.5 (2060ec1f9f, 2020-04-08)"
   width="512.99677"
   height="460.37"><metadata
   id="metadata55"><rdf:RDF><cc:Work
       rdf:about=""><dc:format>image/svg+xml</dc:format><dc:type
         rdf:resource="http://purl.org/dc/dcmitype/StillImage" /><dc:title></dc:title></cc:Work></rdf:RDF></metadata><defs
   id="defs53" /><sodipodi:namedview
   pagecolor="#ffffff"
   bordercolor="#666666"
   borderopacity="1"
   objecttolerance="10"
   gridtolerance="10"
   guidetolerance="10"
   inkscape:pageopacity="0"
   inkscape:pageshadow="2"
   inkscape:window-width="1920"
   inkscape:window-height="1009"
   id="namedview51"
   showgrid="false"
   inkscape:zoom="1.7724873"
   inkscape:cx="370.91547"
   inkscape:cy="162.48353"
   inkscape:window-x="0"
   inkscape:window-y="34"
   inkscape:window-maximized="1"
   inkscape:current-layer="Capa_1"
   inkscape:pagecheckerboard="true"
   fit-margin-top="0"
   fit-margin-left="0"
   fit-margin-right="0"
   fit-margin-bottom="0" />
<g
   id="g6"
   style="fill:#00ff00;fill-opacity:1;stroke:#00ff00;stroke-opacity:1"
   transform="translate(0.49788015,-25.815)">
	<g
   id="g4"
   style="fill:#00ff00;fill-opacity:1;stroke:#00ff00;stroke-opacity:1">
		<path
   d="M 503.839,395.379 308.139,56.417 C 297.257,37.569 277.766,26.315 256,26.315 c -21.765,0 -41.257,11.254 -52.139,30.102 L 8.162,395.378 c -10.883,18.85 -10.883,41.356 0,60.205 10.883,18.849 30.373,30.102 52.139,30.102 h 391.398 c 21.765,0 41.256,-11.254 52.14,-30.101 10.883,-18.85 10.883,-41.356 0,-60.205 z m -25.978,45.207 C 472.4,450.044 462.62,455.69 451.699,455.69 H 60.301 c -10.922,0 -20.702,-5.646 -26.162,-15.104 -5.46,-9.458 -5.46,-20.75 0,-30.208 L 229.84,71.416 c 5.46,-9.458 15.24,-15.104 26.161,-15.104 10.92,0 20.701,5.646 26.161,15.104 l 195.7,338.962 c 5.459,9.458 5.459,20.75 -0.001,30.208 z"
   id="path2"
   style="fill:#00ff00;fill-opacity:1;stroke:#00ff00;stroke-opacity:1"
   inkscape:connector-curvature="0" />
	</g>
</g>


<g
   id="g20"
   transform="translate(0.49788015,-25.815)">
</g>
<g
   id="g22"
   transform="translate(0.49788015,-25.815)">
</g>
<g
   id="g24"
   transform="translate(0.49788015,-25.815)">
</g>
<g
   id="g26"
   transform="translate(0.49788015,-25.815)">
</g>
<g
   id="g28"
   transform="translate(0.49788015,-25.815)">
</g>
<g
   id="g30"
   transform="translate(0.49788015,-25.815)">
</g>
<g
   id="g32"
   transform="translate(0.49788015,-25.815)">
</g>
<g
   id="g34"
   transform="translate(0.49788015,-25.815)">
</g>
<g
   id="g36"
   transform="translate(0.49788015,-25.815)">
</g>
<g
   id="g38"
   transform="translate(0.49788015,-25.815)">
</g>
<g
   id="g40"
   transform="translate(0.49788015,-25.815)">
</g>
<g
   id="g42"
   transform="translate(0.49788015,-25.815)">
</g>
<g
   id="g44"
   transform="translate(0.49788015,-25.815)">
</g>
<g
   id="g46"
   transform="translate(0.49788015,-25.815)">
</g>
<g
   id="g48"
   transform="translate(0.49788015,-25.815)">
</g>
<g
   id="g890"
   transform="translate(0.49789187,-39.390881)"><path
     inkscape:connector-curvature="0"
     id="path870"
     d="M 256.0005,172.47442 V 339.52558"
     style="fill:none;stroke:#00ff00;stroke-width:40;stroke-linecap:round;stroke-linejoin:miter;stroke-miterlimit:4;stroke-dasharray:none;stroke-opacity:1" /><circle
     r="21.15671"
     cy="393.80548"
     cx="256.00049"
     id="path886"
     style="fill:#00ff00;fill-opacity:1;stroke:#00ff00;stroke-width:0;stroke-linecap:round;stroke-miterlimit:4;stroke-dasharray:none;stroke-opacity:1" /></g></svg>