<?xml version="1.0" encoding="UTF-8" standalone="no"?>
<!-- Created with Inkscape (http://www.inkscape.org/) -->

<svg
   xmlns:dc="http://purl.org/dc/elements/1.1/"
   xmlns:cc="http://creativecommons.org/ns#"
   xmlns:rdf="http://www.w3.org/1999/02/22-rdf-syntax-ns#"
   xmlns:svg="http://www.w3.org/2000/svg"
   xmlns="http://www.w3.org/2000/svg"
   xmlns:sodipodi="http://sodipodi.sourceforge.net/DTD/sodipodi-0.dtd"
   xmlns:inkscape="http://www.inkscape.org/namespaces/inkscape"
   width="520.00195"
   height="520.00006"
   viewBox="0 0 137.58384 137.58335"
   version="1.1"
   id="svg8"
   inkscape:version="0.92.5 (2060ec1f9f, 2020-04-08)"
   sodipodi:docname="floppysvg.svg">
  <defs
     id="defs2" />
  <sodipodi:namedview
     id="base"
     pagecolor="#ffffff"
     bordercolor="#666666"
     borderopacity="1.0"
     inkscape:pageopacity="0.0"
     inkscape:pageshadow="2"
     inkscape:zoom="1.4"
     inkscape:cx="396.63611"
     inkscape:cy="237.72877"
     inkscape:document-units="px"
     inkscape:current-layer="layer1"
     showgrid="false"
     inkscape:pagecheckerboard="true"
     units="px"
     fit-margin-top="5"
     fit-margin-left="5"
     fit-margin-right="5"
     fit-margin-bottom="5"
     inkscape:window-width="1920"
     inkscape:window-height="1009"
     inkscape:window-x="0"
     inkscape:window-y="34"
     inkscape:window-maximized="1" />
  <metadata
     id="metadata5">
    <rdf:RDF>
      <cc:Work
         rdf:about="">
        <dc:format>image/svg+xml</dc:format>
        <dc:type
           rdf:resource="http://purl.org/dc/dcmitype/StillImage" />
        <dc:title></dc:title>
      </cc:Work>
    </rdf:RDF>
  </metadata>
  <g
     inkscape:label="Layer 1"
     inkscape:groupmode="layer"
     id="layer1"
     transform="translate(193.52411,-68.702266)">
    <path
       style="fill:none;stroke:#00ff00;stroke-width:10;stroke-miterlimit:4;stroke-dasharray:none;stroke-opacity:1"
       d="m -713.67773,269.66211 -0.002,0.002 c -4.2983,0 -7.75,3.43711 -7.75,7.72071 v 484.55859 c 0,4.2836 3.4517,7.71875 7.75,7.71875 h 181.93946 c -2.3e-4,-0.0227 0,-0.0417 0,-0.0625 0,-3.37002 3.10498,-6.09375 6.9375,-6.09375 3.83247,0 6.9375,2.72373 6.9375,6.09375 0,0.0227 2.2e-4,0.0417 0,0.0625 h 90.0625 c -2.3e-4,-0.0227 0,-0.0417 0,-0.0625 0,-3.37002 3.10498,-6.09375 6.9375,-6.09375 3.83247,0 6.9375,2.72373 6.9375,6.09375 0,0.0227 2.6e-4,0.0417 0,0.0625 h 184.75 c 4.2983,0 7.75,-3.43515 7.75,-7.71875 V 408.35352 h -13.375 c -0.95517,0 -1.75,-0.7668 -1.75,-1.71875 v -18.875 c 0,-0.95188 0.79483,-1.71875 1.75,-1.71875 h 13.375 V 277.38086 c 0,-4.2836 -3.4517,-7.71875 -7.75,-7.71875 z m 23.24804,20.00195 h 224 a 7.9999997,7.9999997 0 0 1 8,8 v 104 a 7.9999997,7.9999997 0 0 1 -8,8 h -224 a 7.9999997,7.9999997 0 0 1 -8,-8 v -104 a 7.9999997,7.9999997 0 0 1 8,-8 z m 218.97071,156.1211 c 42.33097,0 76.625,34.22128 76.625,76.40625 0,42.185 -34.29403,76.375 -76.625,76.375 -42.33102,0 -76.65625,-34.18898 -76.65625,-76.375 0,-42.18599 34.32622,-76.40625 76.65625,-76.40625 z m 95.21875,85.125 c 6.12139,0 11.09375,4.96257 11.09375,11.0625 0,6.09989 -4.97216,11.03125 -11.09375,11.03125 -6.12161,0 -11.09375,-4.93106 -11.09375,-11.03125 0,-6.1002 4.97214,-11.0625 11.09375,-11.0625 z m -95.8125,93.125 c 13.81598,0 24.9375,11.34848 24.9375,25.4375 v 73.40625 c 0,14.088 -11.12152,25.4375 -24.9375,25.4375 -13.81603,0 -24.9375,-11.34848 -24.9375,-25.4375 v -73.40625 c 0,-14.088 11.12147,-25.4375 24.9375,-25.4375 z"
       transform="scale(0.26458333)"
       id="path3839"
       inkscape:connector-curvature="0" />
    <circle
       style="fill:none;fill-opacity:1;stroke:#00ff00;stroke-width:2.64583325;stroke-miterlimit:4;stroke-dasharray:none;stroke-opacity:1"
       id="path4685"
       cx="-124.73218"
       cy="137.49393"
       r="13.040178" />
  </g>
</svg>
